<svg viewBox="0 0 1674.286 1665.73" xmlns="http://www.w3.org/2000/svg"><path d="M480.44 1552.2c242.8 114.04 480.59 103.98 714.19-9.928l-714.19 9.928zM343.94 1443l1006.46-11.2-48.4 33.5-910.91 10.6zM255.2 1366l1178.3-11.8-48.4 54.6-1076.53 10.6zM157.17 1239.5h96.17l-5.58 44.6-61.43-2.5zM195.64 1298.4h55.22l-3.72 42.8-19.86 1.3zM353.86 1238.2l114.8-1.2.62 45.3-119.14.6zM269.48 1068.2l-202.9 60.809 12.41 29.784 37.85-12.41-11.789 29.163-12.41 6.205 9.928 24.199 163.81-46.537-1.862-29.163-9.928-.621-.62-24.199 14.271-3.723 1.241-33.507zm-135.27 96.177l19.235-37.23 1.241 31.025-20.476 6.205zm45.297-12.41l1.861-31.025 26.061 22.958-27.922 8.067zm47.778-13.031l-17.374-22.338 24.82-5.584-7.446 27.922zM352.31 1299.5l112.62 1.4 1.4 37.2-116.81.5zM33.997 836.91l-.931-23.734 86.559.465c46.818 2.049 75.353 16.984 71.202 56.775-4.245 40.69-30.207 52.853-65.152 54.448l-85.163 1.862-2.327-26.526 89.351 1.861c22.998-.851 40.939-8.965 42.349-30.249 1.703-25.713-17.638-33.622-40.953-33.972l-94.935-.93zM40.978 714.51l-1.861 18.149 69.34 2.327c34.622-5.541 53.804-24.399 56.775-57.241 0 0 29.69.663 39.557 0 24.502-1.647 43.391-14.6 46.072-43.745 2.784-30.263-13.279-54.652-44.676-55.845-36.764-1.396-133.56.465-133.56.465l-7.446 24.665 135.89-.931c17.55 4.149 24.564 11.655 22.338 26.992-2.003 13.8-7.758 21.855-23.269 24.199l-58.171-1.396c8.367 35.247 1.049 57.152-26.992 61.429l-73.994.932z"/><path d="M977.77 1056.1l.931-112.16c-69.34-7.911-604.05 97.728-604.05 97.728l-.465 33.972 28.388-6.05-.931 30.249-28.388 8.377-2.327 30.249-34.438-1.396 13.961-249.9 72.133 128.44 22.338-6.05-90.747-154.04 1.396-50.26 116.34 198.25 18.615-4.188-132.17-219.19 32.111.931 131.24 214.54 19.08-3.723.465-21.872-53.518-92.609-5.119 12.1-60.964-106.57 14.427-.465-26.526-46.537-18.149-3.258-28.853-51.656 2.327-53.518 200.58 358.8 24.199-5.119-52.122-92.609-5.584-131.24 111.69 181.5 10.704-20.942-123.79-205.23-1.862-52.587 147.52 214.54 11.169-23.734-162.41-239.2-2.792-47.003-28.388-14.427-18.149 11.634 4.188 46.537-37.23 73.994 15.357 24.665 21.407-42.814 2.327 73.529-30.249-.465-85.629-147.06 2.792-41.418-22.803-10.238-16.753 11.169-1.396 32.576-181.96 501.67 26.526-6.05 151.25-428.61-6.981 80.975-119.6 339.26 20.476-5.584s86.072-235.65 93.912-260.77c-1.381 10.077-3.165 51.815-3.165 51.815l-73.994 202.9 27.922-6.981 37.23-97.263-27.457 387.19 53.052-.465 7.911-163.81 154.97-1.862.465 164.28 67.479 1.861-9.307-209.88-130.77 5.584 1.396-8.377c20.944-11.632 560.78-72.131 560.78-72.131zm-25.75-75.08l-2.172 44.365-35.058-38.781 37.23-5.584zm-61.119 9.153l26.216 33.352-61.274 6.05 35.058-39.402zm-36.299 5.429l-43.745 54.604-2.172-50.57 45.917-4.034zm-69.185 5.584l-.931 44.986-35.058-36.919 35.989-8.067zm-58.637 18.615l20.787 23.579-45.917 6.515 25.13-30.094zm-30.715-.62l-30.404 41.263-2.792-38.161 33.196-3.102zm-52.121 4.654l-3.723 35.678-25.75-30.094 29.473-5.584zm-55.535 13.961l25.75 26.061-44.986 7.756 19.236-33.817zm-56.155 4.653l26.371-.931-25.751 45.606c.001.001-.93-42.193-.62-44.675zm-20.166 3.413l-1.862 36.919-23.269-31.645 25.131-5.274zm-42.194 20.476l15.512 19.235-30.094 3.413 14.582-22.648zm-21.407-6.825l-20.476 37.23-4.343-32.576 24.819-4.654z"/><path d="M610.13 667.05c12.787-9.945 42.3-8.92 56.543-31.645 1.792-2.859 6.976-13.138 13.496 0 2.564 5.167 3.188 15.374 17.219 15.357 5.434-.007 9.992 1.018 13.263-17.219.498-2.775 1.862-12.1 10.471-4.188 0 0 27.552 14.18 36.066 16.521 6.005 1.651 13.742-1.2 24.665 3.49 3.261 1.4 11.529 12.664 0 14.194-15.446 2.05-43.878-1.122-60.033-16.753-2.436-2.357-6.163-6.082-10.471 8.609-1.415 4.826-2.407 16.177-13.263 15.125-6.265-.607-9.981-.196-17.451-18.15-1.245-2.993-3.025-6.748-12.798 2.094s-43.512 25.595-51.889 25.828c-8.378.232-10.862-9.341-5.818-13.263zM632.46 598.64c17.924-7.624 42.304-26.271 59.102-43.047 3.667-3.662 4.35-.519 14.659 14.659 3.172 4.67 15.823 10.704 22.57-.698 6.748-11.402 2.696-14.949 4.188-19.778.958-3.1 8.144-6.515 12.565-3.258 4.421 3.258 21.64 13.03 30.016 13.961 8.377.931 27.11.371 39.324 3.258 3.926.928 16.05 13.939 1.629 16.055-17.417 2.556-48.584-1.54-69.108-13.496-4.796-2.794-7.897-3.63-12.1 18.615-1.011 5.351-5.446 20.439-20.709 6.748-5.132-4.603-15.966-23.966-24.665-12.332-10.145 13.568-39.091 34.438-56.775 36.997-4.376.634-16.816-10.827-.696-17.684zM571.04 1232.7s39.557 2.792 40.022 1.396-.233-33.274-.233-33.274l139.38.465.698 27.457 49.097.233-1.163-120.76h52.354l.931 33.274 48.864-.698.698-21.174h67.944l-9.54 158.23-386.03 2.56-3.025-47.701zM577.09 1296.2l391.14-2.3-2.79 40.3-386.72 3.7zM1086 1292.5h169.16v39.324H1086zM1088.3 1159.2l82.1-1.4 1 26 76.5.7 3.3 92.6-165 1.4zM1265.6 1075.2l67.7-1 19.1 257.6-74.5 1zM1362.9 1182.4l22.1-1.6-1.7-97.7 51.5-.2 1.8 38.8 88-.2 2.5 40.2h25.6l2.1 23.5-52.3 86.4-133.6.9zM1372.2 1290.6l118.6-2-32.1 41.1-83.5.5z"/><path d="M1641.2 885.31l-536.11 43.047-3.025 94.238-31.645.465 10.704-412.78 205.93 278.52 33.972-1.396-2.792-54.216-66.781-86.792-8.144 39.557-160.79-214.07 2.792-87.257 295.98 396.73 26.294-1.629-95.401-124.25-3.49-67.712-63.989-89.817-.698 58.637-158.46-215.23 1.862-32.576 16.288.233-15.823-21.407-.233-42.582 385.79 527.73 26.526-2.327-200.34-272.94-.931-49.097-61.662-80.277 3.49 49.329-76.786-103.08 37.695 2.327-43.512-58.637-36.299-1.163-32.576-45.606 2.56-84.465 471.19 640.35 28.853-2.792-300.4-404.41-2.094-74.227 349.26 440.47 1.629-39.789-357.41-448.15-5.584-95.169 342.51 398.59-11.169-45.606-334.6-383.47-3.49-66.315-35.834-.233-11.867 13.496 1.163 38.393-39.557 78.415 15.59 20.011 27.922-57.241 4.654 123.32-16.521-.233-123.32-170.33 2.327-70.736-35.136-.233-12.1 14.194-.233 36.997-392.08 799.28 28.62-5.584 359.96-731.8-4.188 63.291-326.92 664.08 33.972-3.258 289.93-593.58-4.886 86.094-245.95 500.51 31.413-3.723 212.91-434.42-5.119 97.961-159.86 327.16 37.695-4.886 118.2-244.79-31.413 644.54 72.598.465 6.748-288.76 551.93-30.249 9.54-44.676-42.116 2.327-1.862-42.814 50.726-1.396 3.956-42.582zm-511.44 75.855l42.349-1.396-41.185 46.537-1.164-45.141zm37.462 38.394c4.421-6.283 26.759-38.626 26.759-38.626l25.595 33.972-52.354 4.654zm43.978-44.676l36.764-5.119 2.56 43.978-39.324-38.859zm63.291-5.817l45.606-3.258-43.745 51.191-1.861-47.933zm36.531 38.626l40.022-40.72 36.997 37.928-77.019 2.792zm100.99-2.56l-38.858-45.141 38.858-1.629v46.77zm26.293-49.562l43.047-.698-39.091 43.978-3.956-43.28zm37.463 43.512l36.066-38.161 32.809 36.066-68.875 2.095zm89.817-11.867l-33.274-37.23 33.739.233-.465 36.997z"/><path d="M1095.5 818.29l-1.2 45.14 58.2-115.41-14.2-18.38zM1137.4 904.85l49.1-112.62 16.5 20.94-41.9 91.68zM770.68 220.06c12.1-3.956 31.413-30.947 49.795-57.706 2.133-3.105 6.304-11.93 14.659-3.49 5.419 5.474 12.033 18.907 27.224 14.427 4.891-1.443 11.525-4.084 11.634-16.753.054-6.257-2.666-25.695 8.609-23.501 19.673 3.827 54.914 13.03 80.044 4.421 5.05-1.73 13.503-8.023 20.011 7.446 1.85 4.397 5.297 9.249-15.125 11.634-16.699 1.951-52.615 8.457-67.246.698-3.726-1.976-14.805-8.479-15.357 6.981-.304 8.514 1.251 28.013-10.005 32.576-6.47 2.623-11.894 5.286-25.595-11.169-3.417-4.103-10.057-12.943-21.174 2.792-10.833 15.332-27.758 42.193-51.602 54.554-.563.292-1.075.73-1.683.825-22.339 3.489-12.594-20.987-4.189-23.735zM774.96 134.17c11.741-4.919 28.814-33.38 44.978-61.535 1.876-3.267 5.321-12.4 14.33-4.661 5.843 5.019 13.519 17.875 28.299 12.183 4.759-1.832 11.158-5 10.245-17.637-.451-6.241-4.73-25.396 6.685-24.119 19.917 2.228 55.786 8.558 80.14-2.05 4.894-2.132 12.812-9.086 20.546 5.807 2.199 4.234 6.026 8.791-14.137 12.816-16.487 3.291-51.761 12.674-66.971 6.12-3.873-1.669-15.44-7.257-14.744 8.197.383 8.511 3.507 27.821-7.345 33.277-6.238 3.136-11.429 6.228-26.413-9.068-3.736-3.814-11.068-12.09-20.88 4.491-9.561 16.156-24.264 44.295-47.033 58.539-.538.337-1.013.815-1.611.958-21.983 5.281-14.244-19.902-6.089-23.318zM294.84 234.48l21.174-20.709 201.27 3.49s46.537-6.748 36.532-66.548c0 0 34.67.698 58.404.931s35.368-46.537 0-49.795H502.16l46.072-19.778 66.781.931s41.185 7.679 40.022 45.839-32.809 41.418-32.809 41.418l-47.701.931s6.981 52.122-49.329 64.221l-230.36-.931z"/></svg>