<svg width="1250pt" height="1250pt" viewBox="0 0 1250 1250" xmlns="http://www.w3.org/2000/svg"><path d="M638.15 154.99c4.98-7 8.45-15.22 15.09-20.92-.36 7.46-2.92 14.57-5.8 21.39-13.02 30.99-28.77 61.02-48.76 88.12-28.54 38.96-68.83 68.83-113.6 86.61-7.39 2.89-15.16 5.07-23.14 5.26 8.32-7.5 18.31-12.73 27.58-18.91 25.62-17.48 48.99-38.13 70.29-60.65 29.34-30.97 54.79-65.39 78.34-100.9zM709.4 153.94c.9.38 1.8.77 2.72 1.16 5.41 22.81 8.72 46.09 15.13 68.67 4.86 17.94 11.5 35.43 20.16 51.89 14.14 27.2 34.46 50.51 55.23 72.82 13.04 13.86 26.5 27.32 39.68 41.05 2.82 2.88 5.17 6.21 6.93 9.84-9.76-2.69-18.1-8.68-26.38-14.27-35.89-25.33-68-57.56-87.69-97.22-7.94-15.79-13.17-32.77-17.28-49.9-6.55-27.48-9.37-55.82-8.5-84.04zM651.32 269.26c1.76-1.88 3.65-3.63 5.6-5.3-3.17 8.5-9.24 15.39-14.64 22.53-21.5 26.89-46.26 50.96-71.68 74.09-59.69 53.62-128.61 95.81-199.51 132.84 1.45 9.11 3.06 18.2 4.08 27.37-23.6 3.03-47.45 1.43-71.13 3-3.32.35-8.44-1.32-10.13 2.58 25.82 4.44 52.19.06 78.05 4 4.94.64 9.01 4.23 11.21 8.58 3.39 6.52 4.49 13.93 5.26 21.15.67 7.02.07 14.94-4.98 20.35-2.85 3.23-7.42 3.93-11.5 3.58-8.96-.98-18-.6-26.99-1.1-12.98-.37-26-1.37-38.97-.49 1.78 3.31 5.73 3.39 9 3.55 17.31.74 34.66 1.01 51.93 2.66 3.96.46 8.12.91 11.62 3.01 3.36 2.14 4.94 6.11 5.87 9.83 1.73 7.93-.71 16.23-4.96 22.97-.93 1.34-1.76 3.03-3.5 3.43-11.33 4.01-23.61 2.24-35.19 4.92-1.61.25-2.87 1.29-3.9 2.5 13.94 3.07 28.16-1 42.19.8 3.91.27 6.03 4.46 6.2 7.97.21 7.49.51 15.4-2.9 22.31-5.12 10.8-14.88 18.27-24.15 25.35 29.92 18.78 57.88 40.51 84.71 63.45 68.2 57.47 125.33 128.04 167.19 206.79 4.88 9.74 10.16 19.46 12.58 30.17-3.29-1.89-5.85-4.71-7.91-7.84-13.5-19.64-27.18-39.18-41.96-57.89-16.04-20.54-33.57-39.85-51.3-58.92-26.21-28.1-53.59-55.12-82.11-80.88-10.76-9.64-21.52-19.29-32.83-28.28-22.58-18.02-46.73-33.99-71.55-48.74-3.04 2.8-5.86 5.82-8.68 8.83 26.21 23.48 53.86 45.48 78.04 71.14 41.69 44.09 77.77 94.11 102.43 149.74 2.83 6.38 5.35 12.98 6.34 19.92-4.74-3.77-8.33-8.71-11.67-13.71-33.39-49.23-65.97-99.59-107.46-142.55-26.4-27.45-56.27-51.87-89.74-70.2-3.03-1.6-6.49-.59-9.64-.02 2.16 7.88 5.68 15.28 8.98 22.73 22.79 51.19 44.06 103.07 63.28 155.71 2.4 6.62 4.66 13.33 5.89 20.28-4.17-4.52-6.96-10.06-9.86-15.42-17.73-33.99-32.89-69.23-48.97-104.01-11.56-24.94-23.07-50.26-39.84-72.22-31.43 8.6-62.95 17.2-93.34 29.08-7.2 2.55-14.19 5.96-21.8 7.17-5.19.75-10.93.41-15.32-2.73-6.79-4.59-11.46-11.54-15.48-18.53-7.86-13.75-14.42-28.23-19.94-43.06-8.01-21.89-12.69-45.68-8.91-68.94 1.62-9.09 3.55-18.65 9.46-26.04 3.71-4.85 9.47-7.27 14.45-10.53 6.91-4.2 13.43-9.17 18.58-15.45 23.9-27.52 38.42-61.35 54.15-93.82 3.36-6.92 6.71-13.85 10.55-20.51 2.28-3.89 5.22-7.7 9.46-9.55 39-16.74 81.04-24.29 121.1-37.91 35.22-11.69 69.55-25.95 103.13-41.72 27.58-13.01 54.27-27.85 80.11-44.03 5.23-3.29 10.57-6.51 16.43-8.57-2.26 3.91-5.43 7.19-8.82 10.13-27.27 23.98-57.79 44.02-89.54 61.53-31.91 17.66-65.74 31.87-100.75 42.07-5.31 1.52-10.6 3.1-15.81 4.95 3.83 3.95 7.87 7.9 10.09 13.04-25.4 1.46-50.89 2.96-75.95 7.57-4.52.86-9.19 1.51-13.3 3.72-7.86 4.04-13.68 11.03-18.41 18.33 6.76-3.92 11.36-11.2 19.16-13.41 13.66-3.69 27.43-7.35 41.58-8.57 7.31-.69 14.66-.33 21.99-.42 14.01.12 28.06.3 42.01 1.79 4.05.47 7.79-1.47 11.45-2.89 65.02-26.48 124.84-64.2 180.87-106.2 38.9-29.66 77.06-60.74 110-97.06z"/><path d="M670.1 294.96c6.27 3.05 10.85 8.39 15.86 13.07 13.97 13.41 28.16 26.62 43.22 38.81 49.27 39.18 104.97 70.25 164.08 91.88 13.73 4.42 27.96 9.84 42.65 7.64-21.52-15.91-41.42-34.02-59.19-54.03-15.99-17.98-30.37-37.64-40.62-59.49 7.73 7.46 13.32 16.75 19.98 25.11 16.41 21.67 34.99 42.17 57.71 57.37 15.21 10.25 31.22 19.32 47.87 27.02 10.09 4.79 20.64 8.5 30.76 13.22 9.74 4.35 19.82 8.53 30.57 9.43 5.27.63 11.37.67 15.38 4.72 5.88 6.25 9.14 14.34 13.05 21.87 15.06 30.61 28.37 62.51 49.17 89.84 6.33 8.23 13.02 16.48 21.92 22.08 6.5 4.8 14.78 7.55 19.57 14.39 5.44 7.59 7.23 17 8.78 26.03 3.4 22.67-1.11 45.76-8.83 67.11-5.63 15.32-12.43 30.25-20.55 44.42-4.18 7.15-9.17 14.23-16.31 18.68-6.18 3.44-13.66 2.53-20.15.53-7.86-2.5-15.47-5.71-23.21-8.58-16.42-6.17-33.13-11.61-50.15-15.86-10.69 30.72-12.63 63.59-12.53 95.86-.17 10.04.03 20.14-1.51 30.09-4.16-4.6-4.56-10.99-5.91-16.73-7.57-38.18-5.31-77.44-.93-115.86-8.99-2.17-17.84-4.85-26.63-7.72-23.87 28.57-46.98 57.87-67.28 89.11-30.23 45.69-49.54 97.27-70.18 147.7-3.3 7.5-5.83 15.65-11.56 21.74.02-8.95 1.67-17.79 3.79-26.45 9.38-39.19 24.54-76.74 41.92-113 21.41-44.9 46.34-88.29 76.7-127.76-2.11-1.04-4.21-2.05-6.31-3.07-57.34 62.56-112.73 127.29-176.31 183.73-6.82 6.17-13.9 12.22-22.17 16.38 3.96-7.82 10.11-14.16 15.64-20.86 25.43-29.57 51.5-58.6 76.43-88.6 25.48-30.16 50.03-61.13 76.47-90.48 4.59-5.07 9.46-9.91 13.65-15.33-12.3-9.9-25.38-18.79-37.57-28.83-34.74 32.05-67.24 66.47-97.95 102.39-29.09 34.15-57.17 69.22-82.77 106.08-26.52 38.08-50.58 77.85-72.12 118.95-2.88 5.42-5.79 10.9-9.69 15.69 1.52-10.77 5.67-20.91 9.46-31.03 15.34-39.54 36.67-76.46 60.22-111.63 38.53-56.79 81.05-110.97 128.4-160.68 17.5-18.44 35.94-35.96 53.92-53.91-1.96-7.84-2.9-16.04-1.71-24.07.38-3.4 3.54-6.07 6.91-6.17 12.35-.91 24.73 1.99 37.04.1 1.65-.23 2.79-1.57 4.07-2.51-12.93-2.67-26.39-1.81-39.16-5.28-8.69-8.03-11.82-22.43-5.84-32.94 3-5.19 9.64-5.88 15-6.49 17.59-1.68 35.27-1.92 52.92-2.71 2.99-.05 6.37-.61 7.89-3.54-23.34-.91-46.67 1.21-69.99 1.49-5.49 0-9.53-4.86-11.21-9.66-2.02-5.84-1.3-12.16-.77-18.19.92-7.06 2.8-14.21 6.78-20.2 4.21-5.59 11.81-6.11 18.23-6.57 23.69-2.22 47.85 1.82 71.22-3.83-10.15-2.96-20.81-1.43-31.2-2.16-17.34-1.37-34.86.36-52.09-2.45 1.58-12.56 2.87-25.29 6.74-37.41 2.29-6.03 9.68-6.85 15.22-7.61 15.95-1.94 32.03-2.06 48.07-2.18 6.34.08 12.69-.22 19.02.33 14.61 1.21 28.89 4.82 42.95 8.84 7.67 2.24 12.24 9.39 18.86 13.4-5.93-9.51-14.38-18.7-25.79-21.11-25.39-4.61-51.12-7.81-76.97-7.84-20.76-.31-40.91-6.48-59.96-14.34-27.36-11.46-52.75-27.06-77.18-43.75-36.59-24.9-70.57-54-98.88-88.12-6.39-8.14-13.43-16.15-16.91-26.07z"/><path d="M738.84 418.82c3.97-3.67 7.31-8.13 11.92-11.02-6.25 10.28-13.69 19.79-20.43 29.75-25.51 36.52-51.07 72.98-76.63 109.46 18.65.08 37.31-.17 55.96.13-6.44 8.62-13.72 16.59-20.49 24.96-14.45 17.28-28.87 34.59-43.31 51.88-2 2.37-4.03 4.74-5.72 7.36 13.72-.01 27.44-.02 41.17.02-.74 1.48-1.89 2.69-3.09 3.81-52.66 52.66-105.33 105.31-157.97 157.99-2.39 2.3-4.64 4.78-7.33 6.74.7-1.54 1.48-3.05 2.43-4.45 27.02-40.49 53.92-81.05 81.05-121.47-13.91.06-27.81.08-41.71-.02 1.31-2.66 3.41-4.77 5.28-7.02 20.29-24.34 40.48-48.75 60.85-73.02 1.1-1.34 2.23-2.69 2.94-4.27-18.43.1-36.86.06-55.3.02 1.82-2.55 4.14-4.66 6.36-6.85 54.68-54.66 109.33-109.35 164.02-164z"/><path d="M596.94 451.08c22.44-4.24 45.77-3.06 67.84 2.72-1.21 2.05-3.12 3.53-4.77 5.2-5.97 5.98-12.02 11.87-17.98 17.84-1.5 1.83-3.99.85-5.97.84-38.69-3.65-78.5 12.09-104.44 40.98-24.72 26.93-36.87 64.98-31.8 101.24 3.97 31.44 20.71 60.7 44.96 80.94-3.98 7.67-9.38 14.52-13.78 21.96-.63.7-1.25 2.56-2.45 1.78-34.02-26.69-55.88-68.32-58.2-111.55-2.71-39.96 11.03-80.74 37.44-110.87 22.76-26.49 54.74-44.94 89.15-51.08zM727.98 488.47c8.52 6.9 15.68 15.4 22.25 24.15 21.39 28.93 31.98 65.6 29.35 101.48-2.21 35.46-17.33 69.92-41.83 95.64-21.41 22.87-49.92 39-80.6 45.37-16.16 3.46-32.89 4.23-49.31 2.34-3.63-.47-7.33-.74-10.78-2.02 7.8-8.33 16.14-16.14 24.08-24.33 1.41-1.88 3.91-1.21 5.93-1.37 30.41-.31 60.4-12.41 82.82-32.9 26.91-24.25 42.54-60.53 41.34-96.78-.53-20.51-6.34-40.81-16.6-58.57-6.03-11.02-14.33-20.51-22.89-29.6 5.39-7.82 10.91-15.55 16.24-23.41zM865.43 709.54c6.61-2.13 15.95 2.56 15.04 10.35.74 9.73-14.68 12.38-18.69 4.38-2.37-5-.16-11.09 3.65-14.73zM815.53 765.9c-.82-7.44 8.54-13.36 14.88-9.32 5.5 2.16 5.35 9.19 3.97 13.95-1.9 3.46-6.16 4.26-9.46 5.83-4.12-2.26-9.89-4.78-9.39-10.46zM782.27 802.19c5.36-2.73 13.29 1.64 13.1 7.85-.02 3.01.41 6.94-2.45 8.86-3.68 3.22-9.7 3.91-13.44.42-5.95-4.3-4.37-15.01 2.79-17.13zM742.22 852.2c4.82-2.32 11.1.46 13.14 5.29 1.51 4.73.28 11.04-4.76 13.11-5.73 3.28-13.66-1.02-14.37-7.47-.85-4.53 1.74-9.2 5.99-10.93zM709.15 891.1c4.87-7.49 8.88-15.91 16-21.59-1.62 10.7-6.34 20.56-10.1 30.62-15.76 39.45-32.49 78.69-43.49 119.82-7.45 26.29-10.64 53.49-16.32 80.17-2.76-2.92-2.64-7.34-3.04-11.08-2.67-42.87 5.18-86.11 20.75-126.04 9.96-24.95 22.28-48.93 36.2-71.9zM511.51 881.97c4.83 3.72 8.45 8.71 11.63 13.85 13.59 21.82 26.7 44.17 35.76 68.32 6.2 16.58 10.17 34.13 10.44 51.88.63 31.12-5.67 62-15 91.56-.88 3.13-2.43 6.56-5.81 7.58-1.35-26 .58-52.05-1.29-78.03-1.59-42.37-13.49-83.44-26.7-123.46-3.23-10.49-7.41-20.78-9.03-31.7zM608.34 1055.34c3.04-1.1 6.49-1.16 9.63-.38 3.01.75 4.53 3.74 5.5 6.42 1.7 5.53-2.64 12.09-8.42 12.66-2 .04-4.07-.07-5.92-.86-6.63-3.16-7.53-14.31-.79-17.84z"/></svg>