<svg viewBox="0 0 2380 800" xmlns="http://www.w3.org/2000/svg"><path d="M1114.09 115.115c-37.187-1.628-76.143-10.189-116.19-32.376C901.951 29.585 660 .012 587.8 0 384.42-.046 184.2 6.778 0 34.894l6.116 137.78c52.65 19.241 68.693 55.181 75.904 98.567 33.234 199.97 79.819 370.03 166.56 439.95 61.6 49.661 139 92.932 283.83 88.494 154.28-4.727 318.18-47.113 398.58-139.94 70.587-81.49 144.21-206.86 170.87-343.9 10.045-51.635 46.588-74.465 88.134-74.465s78.09 22.83 88.134 74.465c26.66 137.04 100.29 262.41 170.87 343.9 80.401 92.823 244.3 135.21 398.58 139.94 144.83 4.438 222.23-38.833 283.83-88.494 86.737-69.927 133.32-239.98 166.56-439.95 7.21-43.386 23.252-79.326 75.903-98.567l6.116-137.78C2195.777 6.778 1995.557-.046 1792.187 0c-72.2.012-314.15 29.584-410.1 82.739-40.05 22.187-79.007 30.748-116.19 32.376a1735.877 1735.877 0 0 1-151.81 0zM521.97 69.429c44.927-.08 90.426 1.006 133.46.36 37.24-.56 293.81-7.56 335.27 146.05 39.517 146.42-19.1 332.57-143.89 437.79-86.953 73.32-429.15 152.89-563.34-4.318-91.974-107.75-111.43-205.51-121.23-341.03-6.206-85.85 15.884-173.45 156.12-218 55.721-17.7 128.73-20.734 203.61-20.864zm1179.2 0c10.661-.058 18.728.29 23.383.36 43.035.646 88.534-.44 133.46-.36 74.879.13 147.89 3.164 203.61 20.864 140.24 44.55 162.33 132.15 156.12 218-9.797 135.52-29.256 233.28-121.23 341.03-134.19 157.2-476.39 77.637-563.34 4.317-124.79-105.23-183.41-291.38-143.89-437.79 36.276-134.41 237.26-146.03 311.89-146.41zM60.07 101.805h104.68v24.822H60.07zm2155.2 0h104.68v24.822h-104.68z"/></svg>