<svg version="1.0" xmlns="http://www.w3.org/2000/svg" viewBox="0 0 792 550"><path d="M175.317 263.988c.987.154 1.605.321 2.226.333 1.252.024 1.935-.538 2.132-1.778.678-4.263 3.881-5.401 7.093-4.843 1.146.199 3.21 2.387 3.433 3.614.516 2.828.768 3.043 3.527 3.003 1.783-.026 2.357-.502 2.762-2.292.712-3.138 2.682-4.613 5.835-4.368 2.173.169 4.244 2.004 4.67 4.139.462 2.312.787 2.549 3.45 2.518 1.898-.022 2.477-.525 2.85-2.48.519-2.722 2.279-4.168 5.175-4.252 2.235-.065 4.831 1.89 5.347 4.027.668 2.767.696 2.805 3.416 2.708.705-.025 1.405-.19 2.296-.317.201-.952.405-1.867.587-2.787.416-2.114 1.517-3.149 3.643-3.406 3.758-.455 5.99 1.088 6.953 4.803.389 1.501.61 1.662 2.35 1.672 1.919.011 3.84-.044 5.756.04 1.346.059 2.71.195 4.02.496 1.338.308 2.13 1.262 2.463 2.648.489 2.034.643 2.131 2.756 2.143 3.116.017 6.232.013 9.348-.021.781-.009 1.561-.165 2.407-.261.15-.659.364-1.186.374-1.718.066-3.459 2.876-5.562 5.951-5.599 4.719-.057 9.439-.034 14.158-.003.87.006 1.758.133 2.606.338 2.66.643 3.943 2.475 4.302 5.101.241 1.766.663 2.109 2.45 2.187.399.017.799-.001 1.199-.002 3.787-.012 3.77-.013 3.982-3.69.05-.873.233-1.741.393-2.604.355-1.918 1.503-3.247 3.432-3.414 3.086-.269 6.192-.336 9.291-.395 3.592-.068 7.187-.028 10.78-.048 1.885-.011 2.116-.263 2.154-2.212.058-2.986 2.027-5.547 4.716-5.681 3.878-.193 5.623 1.453 6.112 5.401.205 1.655.036 3.355.066 5.034.039 2.153.38 2.475 2.518 2.475 42.76-.006 85.52-.017 128.28-.016 48.036.001 96.073.018 144.109.019 39.163.001 78.327 0 117.49-.036 3.153-.003 6.316.333 9.095 1.606 2.816 1.29 5.841 2.548 7.698 5.402 3.379 5.191 5.221 10.795 3.575 16.896-1.175 4.354-2.914 8.701-7.118 11.179-3.938 2.321-8.17 3.764-12.869 3.75-19.178-.056-38.356-.015-57.533-.023-39.47-.016-78.94-.052-118.41-.056-38.431-.004-76.863.027-115.294.031-32.434.003-64.869-.012-97.303-.02-.64 0-1.279-.011-1.919-.017-1.828-.018-2.294.38-2.334 2.18-.04 1.838.102 3.684-.012 5.516-.227 3.672-2.577 5.494-6.031 5.294-2.538-.147-4.733-2.537-4.822-5.09-.011-.319.014-.641-.002-.96-.081-1.553-.416-1.917-2.042-1.947-2.396-.044-4.793-.021-7.189-.016-3.118.006-6.238.073-9.355.011-1.422-.028-2.883-.141-4.247-.508-1.443-.388-2.516-1.43-2.776-2.987-.236-1.41-.327-2.847-.431-4.276-.13-1.784-.549-2.251-2.302-2.358-.557-.034-1.119.006-1.678.007-3.126.005-3.126.005-3.805 3.084-.626 2.84-2.357 4.307-5.682 4.518-2.391.151-4.797.087-7.196.069-2.796-.02-5.594-.051-8.387-.157-2.969-.112-5.527-2.481-5.626-5.445-.055-1.661-.434-2.002-2.032-2.037-3.596-.078-7.194-.026-10.791-.051-1.17-.008-1.837.616-1.987 1.672-.311 2.181-1.538 3.225-3.692 3.309-2.786.108-5.57.266-8.356.342-2.11.058-2.19.07-2.674 2.192-.532 2.33-2.043 3.884-4.236 4.455-1.968.513-4.063.284-5.393-1.58-.567-.794-.744-1.876-1.056-2.841-.171-.528-.257-1.085-.393-1.679-1.217-.821-2.617-.546-3.937-.54-1.013.005-1.453.775-1.67 1.735-.853 3.78-3.083 5.364-6.833 4.912-1.692-.204-3.646-2.129-3.927-3.868-.406-2.514-2.635-3.749-4.875-2.574-.508.266-.909 1.064-1.029 1.681-.482 2.478-2.82 4.794-5.112 4.904-2.593.124-5.008-1.625-5.738-4.157-.726-2.517-1.155-2.83-3.67-2.672-1.579.099-2.008.481-2.357 2.102-.708 3.286-2.94 4.988-6.15 4.691-2.065-.191-4.411-2.466-4.649-4.509-.221-1.894-.491-2.131-2.312-2.239-1.726-.102-3.294.137-4.708 1.304-1.38 1.14-3.147 1.052-4.825 1.057-6.399.017-12.798.002-19.197.001-30.235-.003-60.471-.017-90.706.011-3.161.003-6.224-.483-9.089-1.716-1.75-.753-3.024-2.137-3.828-4.062-1.333-3.193-1.559-6.463-1.512-9.837.078-5.595.072-11.191.085-16.786.006-2.469.91-4.725 1.974-6.832 1.374-2.721 4.215-3.515 6.928-4.153 1.613-.38 3.333-.406 5.006-.408 15.678-.021 31.355-.002 47.033.005.48 0 .962.024 1.44-.007 1.668-.11 2.099-.498 2.138-2.217.057-2.479-.001-4.96.021-7.439.009-1.038.016-2.087.164-3.11.518-3.591 2.179-5.329 6.033-5.336 8.633-.014 17.266.009 25.899.012 9.669.003 19.342.146 29.007-.076 3.418-.078 6.459 2.815 6.205 6.297-.261 3.579-.06 7.193-.061 10.791l-.001 3.094zm363.716 28.291v.012c64.155 0 128.31.002 192.465-.009a52.35 52.35 0 0 0 5.255-.243c1.013-.103 2.18-.231 2.962-.79 2.781-1.986 4.68-4.468 4.322-8.241-.208-2.195-1.445-3.519-2.786-5.051-1.475-1.686-3.15-2.276-5.224-2.309-3.196-.052-6.391-.186-9.586-.187-65.272-.012-130.545-.006-195.817-.012-62.152-.006-124.304-.022-186.456-.033-1.833 0-2.371.406-2.395 2.179a480.577 480.577 0 0 0-.002 12.478c.021 1.683.508 2.093 2.157 2.195.399.025.8.011 1.2.011h193.905zm-374.707-18.94c-1.247-.084-2.335-.222-3.423-.222-26.761-.009-53.522-.003-80.283-.001-2.258 0-2.522.207-2.532 2.385-.027 5.596-.032 11.192-.008 16.788.009 2.017.359 2.319 2.403 2.319 27.071.005 54.142.009 81.213-.005.848 0 1.697-.194 2.63-.308v-20.956zm166.271-2.734c-4.597-.032-8.884-.109-13.169-.056-.951.012-1.542.72-1.448 1.828.081.952.07 1.914.07 2.871 0 6.548-.009 13.096-.012 19.644-.001 1.649.258 2.198 1.491 2.22 3.911.07 7.825.012 11.738-.01.938-.005 1.494-.478 1.557-1.447.031-.477.069-.956.069-1.433.001-6.868.005-13.737-.018-20.605-.002-.857-.153-1.715-.278-3.012zm-211.381-15.822c0 2.105.032 3.773-.011 5.44-.032 1.234.548 1.759 1.732 1.735.4-.008.799-.001 1.199-.001l39.576.011c.479 0 .964.028 1.437-.029.794-.096 1.387-.492 1.376-1.37-.024-1.811-.102-3.622-.167-5.749-15.071-.152-29.88-.07-45.142-.037zm-52.219 39.243c-.064-6.875.105-13.69-.101-20.756-4.128-.29-7.971-.156-12.157-.122-.065 7.228-.074 14.18.009 21.051 2.635.613 9.956.526 12.249-.173zm218.718.474c.703-2.197.665-19.36-.026-21.225h-4.491c-.109 7.154-.147 14.118.017 21.225h4.5zm-22.279-7.26v.039c1.591 0 3.182.003 4.773-.001 1.399-.003 1.908-.403 2.01-1.741.072-.949.026-1.91-.007-2.865-.067-1.911-.37-2.227-2.236-2.242-2.624-.021-5.249.012-7.874-.006-4.345-.03-4.392.008-4.269 4.366.057 2.016.471 2.42 2.595 2.445 1.669.022 3.339.005 5.008.005zm-50.528-3.432c0-1.839-.006-3.679.001-5.518.011-2.61-.071-2.705-2.586-2.838-2.729-.144-2.981.109-2.975 2.886.008 3.519.014 7.038-.006 10.557-.019 3.281.245 3.547 3.544 3.377 1.624-.084 1.977-.384 2.011-1.986.045-2.158.011-4.318.011-6.478zm16.886.119c0-2.237-.032-4.474.013-6.71.025-1.229-.541-1.761-1.715-1.762-.399 0-.799.006-1.198-.003-2.444-.057-2.797.259-2.808 2.667-.016 3.515.001 7.03-.007 10.545-.008 3.484.393 3.861 3.874 3.588.08-.006.16-.006.239-.008 1.203-.035 1.659-.642 1.622-1.847-.065-2.155-.018-4.313-.02-6.47zm-39.28.012c0 2.077-.041 4.155.026 6.23.019.588.273 1.62.557 1.67 1.372.241 2.851.489 4.172.197.991-.22.846-1.515.831-2.504a484.13 484.13 0 0 1-.025-10.779c.025-3.242-.281-3.554-3.561-3.332-1.574.107-1.954.452-1.986 2.049-.042 2.154-.011 4.312-.014 6.469zm-15.211-.183h-.005c0 2.226.017 4.452-.009 6.678-.009.779.098 1.553.948 1.692 2.047.334 3.36.4 3.335-2.206-.029-2.942-.031-5.884-.035-8.826-.001-1.193.071-2.387.025-3.577-.063-1.654-.552-2.074-2.213-2.062-1.74.013-2.032.3-2.043 2.098-.013 2.068-.003 4.136-.003 6.203zm69.531.006h-.007c0-2.073.016-4.146-.005-6.218-.018-1.856-.717-2.386-2.512-2.062-1.379.249-1.496 1.256-1.499 2.332-.013 3.985-.01 7.97-.001 11.955.001.394.017.806.132 1.178.303.982 1.529 1.538 2.762 1.306 1.024-.193 1.144-.93 1.136-1.795-.019-2.232-.006-4.464-.006-6.696zm55.503 3.485c1.269 0 1.997-.091 2.693.02 1.294.205 1.776-.417 1.799-1.574.024-1.195.002-2.391.002-3.586 0-1.169-.501-1.761-1.751-1.694-1.192.063-2.39.006-3.585.005-2.003-.001-2.218.196-2.292 2.112-.012.318.001.638 0 .956-.016 3.983-.212 3.99 3.134 3.761z"/><path fill="#0A0A0A" d="M539.033 292.279H345.126c-.4 0-.801.013-1.2-.011-1.649-.102-2.136-.512-2.157-2.195-.051-4.159-.054-8.319.002-12.478.024-1.773.563-2.179 2.395-2.179 62.152.011 124.304.027 186.456.033 65.272.006 130.545 0 195.817.012 3.195.001 6.391.135 9.586.187 2.074.033 3.749.623 5.224 2.309 1.341 1.533 2.578 2.856 2.786 5.051.357 3.773-1.541 6.255-4.322 8.241-.782.559-1.949.687-2.962.79a52.056 52.056 0 0 1-5.255.243c-64.155.011-128.31.009-192.465.009.002-.004.002-.008.002-.012z"/></svg>