<?xml version="1.0" encoding="UTF-8" ?>
<!DOCTYPE svg PUBLIC "-//W3C//DTD SVG 1.1//EN" "http://www.w3.org/Graphics/SVG/1.1/DTD/svg11.dtd">
<svg width="1250pt" height="1250pt" viewBox="0 0 1250 1250" version="1.1" xmlns="http://www.w3.org/2000/svg">
<g id="#000000ff">
<path fill="#000000" opacity="1.00" d=" M 638.15 154.99 C 643.13 147.99 646.60 139.77 653.24 134.07 C 652.88 141.53 650.32 148.64 647.44 155.46 C 634.42 186.45 618.67 216.48 598.68 243.58 C 570.14 282.54 529.85 312.41 485.08 330.19 C 477.69 333.08 469.92 335.26 461.94 335.45 C 470.26 327.95 480.25 322.72 489.52 316.54 C 515.14 299.06 538.51 278.41 559.81 255.89 C 589.15 224.92 614.60 190.50 638.15 154.99 Z" />
<path fill="#000000" opacity="1.00" d=" M 709.40 153.94 C 710.30 154.32 711.20 154.71 712.12 155.10 C 717.53 177.91 720.84 201.19 727.25 223.77 C 732.11 241.71 738.75 259.20 747.41 275.66 C 761.55 302.86 781.87 326.17 802.64 348.48 C 815.68 362.34 829.14 375.80 842.32 389.53 C 845.14 392.41 847.49 395.74 849.25 399.37 C 839.49 396.68 831.15 390.69 822.87 385.10 C 786.98 359.77 754.87 327.54 735.18 287.88 C 727.24 272.09 722.01 255.11 717.90 237.98 C 711.35 210.50 708.53 182.16 709.40 153.94 Z" />
<path fill="#000000" opacity="1.00" d=" M 651.32 269.26 C 653.08 267.38 654.97 265.63 656.92 263.96 C 653.75 272.46 647.68 279.35 642.28 286.49 C 620.78 313.38 596.02 337.45 570.60 360.58 C 510.91 414.20 441.99 456.39 371.09 493.42 C 372.54 502.53 374.15 511.62 375.17 520.79 C 351.57 523.82 327.72 522.22 304.04 523.79 C 300.72 524.14 295.60 522.47 293.91 526.37 C 319.73 530.81 346.10 526.43 371.96 530.37 C 376.90 531.01 380.97 534.60 383.17 538.95 C 386.56 545.47 387.66 552.88 388.43 560.10 C 389.10 567.12 388.50 575.04 383.45 580.45 C 380.60 583.68 376.03 584.38 371.95 584.03 C 362.99 583.05 353.95 583.43 344.96 582.93 C 331.98 582.56 318.96 581.56 305.99 582.44 C 307.77 585.75 311.72 585.83 314.99 585.99 C 332.30 586.73 349.65 587.00 366.92 588.65 C 370.88 589.11 375.04 589.56 378.54 591.66 C 381.90 593.80 383.48 597.77 384.41 601.49 C 386.14 609.42 383.70 617.72 379.45 624.46 C 378.52 625.80 377.69 627.49 375.95 627.89 C 364.62 631.90 352.34 630.13 340.76 632.81 C 339.15 633.06 337.89 634.10 336.86 635.31 C 350.80 638.38 365.02 634.31 379.05 636.11 C 382.96 636.38 385.08 640.57 385.25 644.08 C 385.46 651.57 385.76 659.48 382.35 666.39 C 377.23 677.19 367.47 684.66 358.20 691.74 C 388.12 710.52 416.08 732.25 442.91 755.19 C 511.11 812.66 568.24 883.23 610.10 961.98 C 614.98 971.72 620.26 981.44 622.68 992.15 C 619.39 990.26 616.83 987.44 614.77 984.31 C 601.27 964.67 587.59 945.13 572.81 926.42 C 556.77 905.88 539.24 886.57 521.51 867.50 C 495.30 839.40 467.92 812.38 439.40 786.62 C 428.64 776.98 417.88 767.33 406.57 758.34 C 383.99 740.32 359.84 724.35 335.02 709.60 C 331.98 712.40 329.16 715.42 326.34 718.43 C 352.55 741.91 380.20 763.91 404.38 789.57 C 446.07 833.66 482.15 883.68 506.81 939.31 C 509.64 945.69 512.16 952.29 513.15 959.23 C 508.41 955.46 504.82 950.52 501.48 945.52 C 468.09 896.29 435.51 845.93 394.02 802.97 C 367.62 775.52 337.75 751.10 304.28 732.77 C 301.25 731.17 297.79 732.18 294.64 732.75 C 296.80 740.63 300.32 748.03 303.62 755.48 C 326.41 806.67 347.68 858.55 366.90 911.19 C 369.30 917.81 371.56 924.52 372.79 931.47 C 368.62 926.95 365.83 921.41 362.93 916.05 C 345.20 882.06 330.04 846.82 313.96 812.04 C 302.40 787.10 290.89 761.78 274.12 739.82 C 242.69 748.42 211.17 757.02 180.78 768.90 C 173.58 771.45 166.59 774.86 158.98 776.07 C 153.79 776.82 148.05 776.48 143.66 773.34 C 136.87 768.75 132.20 761.80 128.18 754.81 C 120.32 741.06 113.76 726.58 108.24 711.75 C 100.23 689.86 95.55 666.07 99.33 642.81 C 100.95 633.72 102.88 624.16 108.79 616.77 C 112.50 611.92 118.26 609.50 123.24 606.24 C 130.15 602.04 136.67 597.07 141.82 590.79 C 165.72 563.27 180.24 529.44 195.97 496.97 C 199.33 490.05 202.68 483.12 206.52 476.46 C 208.80 472.57 211.74 468.76 215.98 466.91 C 254.98 450.17 297.02 442.62 337.08 429.00 C 372.30 417.31 406.63 403.05 440.21 387.28 C 467.79 374.27 494.48 359.43 520.32 343.25 C 525.55 339.96 530.89 336.74 536.75 334.68 C 534.49 338.59 531.32 341.87 527.93 344.81 C 500.66 368.79 470.14 388.83 438.39 406.34 C 406.48 424.00 372.65 438.21 337.64 448.41 C 332.33 449.93 327.04 451.51 321.83 453.36 C 325.66 457.31 329.70 461.26 331.92 466.40 C 306.52 467.86 281.03 469.36 255.97 473.97 C 251.45 474.83 246.78 475.48 242.67 477.69 C 234.81 481.73 228.99 488.72 224.26 496.02 C 231.02 492.10 235.62 484.82 243.42 482.61 C 257.08 478.92 270.85 475.26 285.00 474.04 C 292.31 473.35 299.66 473.71 306.99 473.62 C 321.00 473.74 335.05 473.92 349.00 475.41 C 353.05 475.88 356.79 473.94 360.45 472.52 C 425.47 446.04 485.29 408.32 541.32 366.32 C 580.22 336.66 618.38 305.58 651.32 269.26 Z" />
<path fill="#000000" opacity="1.00" d=" M 670.10 294.96 C 676.37 298.01 680.95 303.35 685.96 308.03 C 699.93 321.44 714.12 334.65 729.18 346.84 C 778.45 386.02 834.15 417.09 893.26 438.72 C 906.99 443.14 921.22 448.56 935.91 446.36 C 914.39 430.45 894.49 412.34 876.72 392.33 C 860.73 374.35 846.35 354.69 836.10 332.84 C 843.83 340.30 849.42 349.59 856.08 357.95 C 872.49 379.62 891.07 400.12 913.79 415.32 C 929.00 425.57 945.01 434.64 961.66 442.34 C 971.75 447.13 982.30 450.84 992.42 455.56 C 1002.16 459.91 1012.24 464.09 1022.99 464.99 C 1028.26 465.62 1034.36 465.66 1038.37 469.71 C 1044.25 475.96 1047.51 484.05 1051.42 491.58 C 1066.48 522.19 1079.79 554.09 1100.59 581.42 C 1106.92 589.65 1113.61 597.90 1122.51 603.50 C 1129.01 608.30 1137.29 611.05 1142.08 617.89 C 1147.52 625.48 1149.31 634.89 1150.86 643.92 C 1154.26 666.59 1149.75 689.68 1142.03 711.03 C 1136.40 726.35 1129.60 741.28 1121.48 755.45 C 1117.30 762.60 1112.31 769.68 1105.17 774.13 C 1098.99 777.57 1091.51 776.66 1085.02 774.66 C 1077.16 772.16 1069.55 768.95 1061.81 766.08 C 1045.39 759.91 1028.68 754.47 1011.66 750.22 C 1000.97 780.94 999.03 813.81 999.13 846.08 C 998.96 856.12 999.16 866.22 997.62 876.17 C 993.46 871.57 993.06 865.18 991.71 859.44 C 984.14 821.26 986.40 782.00 990.78 743.58 C 981.79 741.41 972.94 738.73 964.15 735.86 C 940.28 764.43 917.17 793.73 896.87 824.97 C 866.64 870.66 847.33 922.24 826.69 972.67 C 823.39 980.17 820.86 988.32 815.13 994.41 C 815.15 985.46 816.80 976.62 818.92 967.96 C 828.30 928.77 843.46 891.22 860.84 854.96 C 882.25 810.06 907.18 766.67 937.54 727.20 C 935.43 726.16 933.33 725.15 931.23 724.13 C 873.89 786.69 818.50 851.42 754.92 907.86 C 748.10 914.03 741.02 920.08 732.75 924.24 C 736.71 916.42 742.86 910.08 748.39 903.38 C 773.82 873.81 799.89 844.78 824.82 814.78 C 850.30 784.62 874.85 753.65 901.29 724.30 C 905.88 719.23 910.75 714.39 914.94 708.97 C 902.64 699.07 889.56 690.18 877.37 680.14 C 842.63 712.19 810.13 746.61 779.42 782.53 C 750.33 816.68 722.25 851.75 696.65 888.61 C 670.13 926.69 646.07 966.46 624.53 1007.56 C 621.65 1012.98 618.74 1018.46 614.84 1023.25 C 616.36 1012.48 620.51 1002.34 624.30 992.22 C 639.64 952.68 660.97 915.76 684.52 880.59 C 723.05 823.80 765.57 769.62 812.92 719.91 C 830.42 701.47 848.86 683.95 866.84 666.00 C 864.88 658.16 863.94 649.96 865.13 641.93 C 865.51 638.53 868.67 635.86 872.04 635.76 C 884.39 634.85 896.77 637.75 909.08 635.86 C 910.73 635.63 911.87 634.29 913.15 633.35 C 900.22 630.68 886.76 631.54 873.99 628.07 C 865.30 620.04 862.17 605.64 868.15 595.13 C 871.15 589.94 877.79 589.25 883.15 588.64 C 900.74 586.96 918.42 586.72 936.07 585.93 C 939.06 585.88 942.44 585.32 943.96 582.39 C 920.62 581.48 897.29 583.60 873.97 583.88 C 868.48 583.88 864.44 579.02 862.76 574.22 C 860.74 568.38 861.46 562.06 861.99 556.03 C 862.91 548.97 864.79 541.82 868.77 535.83 C 872.98 530.24 880.58 529.72 887.00 529.26 C 910.69 527.04 934.85 531.08 958.22 525.43 C 948.07 522.47 937.41 524.00 927.02 523.27 C 909.68 521.90 892.16 523.63 874.93 520.82 C 876.51 508.26 877.80 495.53 881.67 483.41 C 883.96 477.38 891.35 476.56 896.89 475.80 C 912.84 473.86 928.92 473.74 944.96 473.62 C 951.30 473.70 957.65 473.40 963.98 473.95 C 978.59 475.16 992.87 478.77 1006.93 482.79 C 1014.60 485.03 1019.17 492.18 1025.79 496.19 C 1019.86 486.68 1011.41 477.49 1000.00 475.08 C 974.61 470.47 948.88 467.27 923.03 467.24 C 902.27 466.93 882.12 460.76 863.07 452.90 C 835.71 441.44 810.32 425.84 785.89 409.15 C 749.30 384.25 715.32 355.15 687.01 321.03 C 680.62 312.89 673.58 304.88 670.10 294.96 Z" />
<path fill="#000000" opacity="1.00" d=" M 738.84 418.82 C 742.81 415.15 746.15 410.69 750.76 407.80 C 744.51 418.08 737.07 427.59 730.33 437.55 C 704.82 474.07 679.26 510.53 653.70 547.01 C 672.35 547.09 691.01 546.84 709.66 547.14 C 703.22 555.76 695.94 563.73 689.17 572.10 C 674.72 589.38 660.30 606.69 645.86 623.98 C 643.86 626.35 641.83 628.72 640.14 631.34 C 653.86 631.33 667.58 631.32 681.31 631.36 C 680.57 632.84 679.42 634.05 678.22 635.17 C 625.56 687.83 572.89 740.48 520.25 793.16 C 517.86 795.46 515.61 797.94 512.92 799.90 C 513.62 798.36 514.40 796.85 515.35 795.45 C 542.37 754.96 569.27 714.40 596.40 673.98 C 582.49 674.04 568.59 674.06 554.69 673.96 C 556.00 671.30 558.10 669.19 559.97 666.94 C 580.26 642.60 600.45 618.19 620.82 593.92 C 621.92 592.58 623.05 591.23 623.76 589.65 C 605.33 589.75 586.90 589.71 568.46 589.67 C 570.28 587.12 572.60 585.01 574.82 582.82 C 629.50 528.16 684.15 473.47 738.84 418.82 Z" />
<path fill="#000000" opacity="1.00" d=" M 596.94 451.08 C 619.38 446.84 642.71 448.02 664.78 453.80 C 663.57 455.85 661.66 457.33 660.01 459.00 C 654.04 464.98 647.99 470.87 642.03 476.84 C 640.53 478.67 638.04 477.69 636.06 477.68 C 597.37 474.03 557.56 489.77 531.62 518.66 C 506.90 545.59 494.75 583.64 499.82 619.90 C 503.79 651.34 520.53 680.60 544.78 700.84 C 540.80 708.51 535.40 715.36 531.00 722.80 C 530.37 723.50 529.75 725.36 528.55 724.58 C 494.53 697.89 472.67 656.26 470.35 613.03 C 467.64 573.07 481.38 532.29 507.79 502.16 C 530.55 475.67 562.53 457.22 596.94 451.08 Z" />
<path fill="#000000" opacity="1.00" d=" M 727.98 488.47 C 736.50 495.37 743.66 503.87 750.23 512.62 C 771.62 541.55 782.21 578.22 779.58 614.10 C 777.37 649.56 762.25 684.02 737.75 709.74 C 716.34 732.61 687.83 748.74 657.15 755.11 C 640.99 758.57 624.26 759.34 607.84 757.45 C 604.21 756.98 600.51 756.71 597.06 755.43 C 604.86 747.10 613.20 739.29 621.14 731.10 C 622.55 729.22 625.05 729.89 627.07 729.73 C 657.48 729.42 687.47 717.32 709.89 696.83 C 736.80 672.58 752.43 636.30 751.23 600.05 C 750.70 579.54 744.89 559.24 734.63 541.48 C 728.60 530.46 720.30 520.97 711.74 511.88 C 717.13 504.06 722.65 496.33 727.98 488.47 Z" />
<path fill="#000000" opacity="1.00" d=" M 865.43 709.54 C 872.04 707.41 881.38 712.10 880.47 719.89 C 881.21 729.62 865.79 732.27 861.78 724.27 C 859.41 719.27 861.62 713.18 865.43 709.54 Z" />
<path fill="#000000" opacity="1.00" d=" M 815.53 765.90 C 814.71 758.46 824.07 752.54 830.41 756.58 C 835.91 758.74 835.76 765.77 834.38 770.53 C 832.48 773.99 828.22 774.79 824.92 776.36 C 820.80 774.10 815.03 771.58 815.53 765.90 Z" />
<path fill="#000000" opacity="1.00" d=" M 782.27 802.19 C 787.63 799.46 795.56 803.83 795.37 810.04 C 795.35 813.05 795.78 816.98 792.92 818.90 C 789.24 822.12 783.22 822.81 779.48 819.32 C 773.53 815.02 775.11 804.31 782.27 802.19 Z" />
<path fill="#000000" opacity="1.00" d=" M 742.22 852.20 C 747.04 849.88 753.32 852.66 755.36 857.49 C 756.87 862.22 755.64 868.53 750.60 870.60 C 744.87 873.88 736.94 869.58 736.23 863.13 C 735.38 858.60 737.97 853.93 742.22 852.20 Z" />
<path fill="#000000" opacity="1.00" d=" M 709.15 891.10 C 714.02 883.61 718.03 875.19 725.15 869.51 C 723.53 880.21 718.81 890.07 715.05 900.13 C 699.29 939.58 682.56 978.82 671.56 1019.95 C 664.11 1046.24 660.92 1073.44 655.24 1100.12 C 652.48 1097.20 652.60 1092.78 652.20 1089.04 C 649.53 1046.17 657.38 1002.93 672.95 963.00 C 682.91 938.05 695.23 914.07 709.15 891.10 Z" />
<path fill="#000000" opacity="1.00" d=" M 511.51 881.97 C 516.34 885.69 519.96 890.68 523.14 895.82 C 536.73 917.64 549.84 939.99 558.90 964.14 C 565.10 980.72 569.07 998.27 569.34 1016.02 C 569.97 1047.14 563.67 1078.02 554.34 1107.58 C 553.46 1110.71 551.91 1114.14 548.53 1115.16 C 547.18 1089.16 549.11 1063.11 547.24 1037.13 C 545.65 994.76 533.75 953.69 520.54 913.67 C 517.31 903.18 513.13 892.89 511.51 881.97 Z" />
<path fill="#000000" opacity="1.00" d=" M 608.34 1055.34 C 611.38 1054.24 614.83 1054.18 617.97 1054.96 C 620.98 1055.71 622.50 1058.70 623.47 1061.38 C 625.17 1066.91 620.83 1073.47 615.05 1074.04 C 613.05 1074.08 610.98 1073.97 609.13 1073.18 C 602.50 1070.02 601.60 1058.87 608.34 1055.34 Z" />
</g>
</svg>
