<?xml version="1.0" encoding="utf-8"?>
<!-- Generator: Adobe Illustrator 22.1.0, SVG Export Plug-In . SVG Version: 6.00 Build 0)  -->
<svg version="1.0" id="Layer_1" xmlns="http://www.w3.org/2000/svg" xmlns:xlink="http://www.w3.org/1999/xlink" x="0px" y="0px"
	 viewBox="0 0 792 550" enable-background="new 0 0 792 612" xml:space="preserve">
<g>
	<path d="M175.317,263.988c0.987,0.154,1.605,0.321,2.226,0.333c1.252,0.024,1.935-0.538,2.132-1.778
		c0.678-4.263,3.881-5.401,7.093-4.843c1.146,0.199,3.21,2.387,3.433,3.614c0.516,2.828,0.768,3.043,3.527,3.003
		c1.783-0.026,2.357-0.502,2.762-2.292c0.712-3.138,2.682-4.613,5.835-4.368c2.173,0.169,4.244,2.004,4.67,4.139
		c0.462,2.312,0.787,2.549,3.45,2.518c1.898-0.022,2.477-0.525,2.85-2.48c0.519-2.722,2.279-4.168,5.175-4.252
		c2.235-0.065,4.831,1.89,5.347,4.027c0.668,2.767,0.696,2.805,3.416,2.708c0.705-0.025,1.405-0.19,2.296-0.317
		c0.201-0.952,0.405-1.867,0.587-2.787c0.416-2.114,1.517-3.149,3.643-3.406c3.758-0.455,5.99,1.088,6.953,4.803
		c0.389,1.501,0.61,1.662,2.35,1.672c1.919,0.011,3.84-0.044,5.756,0.04c1.346,0.059,2.71,0.195,4.02,0.496
		c1.338,0.308,2.13,1.262,2.463,2.648c0.489,2.034,0.643,2.131,2.756,2.143c3.116,0.017,6.232,0.013,9.348-0.021
		c0.781-0.009,1.561-0.165,2.407-0.261c0.15-0.659,0.364-1.186,0.374-1.718c0.066-3.459,2.876-5.562,5.951-5.599
		c4.719-0.057,9.439-0.034,14.158-0.003c0.87,0.006,1.758,0.133,2.606,0.338c2.66,0.643,3.943,2.475,4.302,5.101
		c0.241,1.766,0.663,2.109,2.45,2.187c0.399,0.017,0.799-0.001,1.199-0.002c3.787-0.012,3.77-0.013,3.982-3.69
		c0.05-0.873,0.233-1.741,0.393-2.604c0.355-1.918,1.503-3.247,3.432-3.414c3.086-0.269,6.192-0.336,9.291-0.395
		c3.592-0.068,7.187-0.028,10.78-0.048c1.885-0.011,2.116-0.263,2.154-2.212c0.058-2.986,2.027-5.547,4.716-5.681
		c3.878-0.193,5.623,1.453,6.112,5.401c0.205,1.655,0.036,3.355,0.066,5.034c0.039,2.153,0.38,2.475,2.518,2.475
		c42.76-0.006,85.52-0.017,128.28-0.016c48.036,0.001,96.073,0.018,144.109,0.019c39.163,0.001,78.327,0,117.49-0.036
		c3.153-0.003,6.316,0.333,9.095,1.606c2.816,1.29,5.841,2.548,7.698,5.402c3.379,5.191,5.221,10.795,3.575,16.896
		c-1.175,4.354-2.914,8.701-7.118,11.179c-3.938,2.321-8.17,3.764-12.869,3.75c-19.178-0.056-38.356-0.015-57.533-0.023
		c-39.47-0.016-78.94-0.052-118.41-0.056c-38.431-0.004-76.863,0.027-115.294,0.031c-32.434,0.003-64.869-0.012-97.303-0.02
		c-0.64,0-1.279-0.011-1.919-0.017c-1.828-0.018-2.294,0.38-2.334,2.18c-0.04,1.838,0.102,3.684-0.012,5.516
		c-0.227,3.672-2.577,5.494-6.031,5.294c-2.538-0.147-4.733-2.537-4.822-5.09c-0.011-0.319,0.014-0.641-0.002-0.96
		c-0.081-1.553-0.416-1.917-2.042-1.947c-2.396-0.044-4.793-0.021-7.189-0.016c-3.118,0.006-6.238,0.073-9.355,0.011
		c-1.422-0.028-2.883-0.141-4.247-0.508c-1.443-0.388-2.516-1.43-2.776-2.987c-0.236-1.41-0.327-2.847-0.431-4.276
		c-0.13-1.784-0.549-2.251-2.302-2.358c-0.557-0.034-1.119,0.006-1.678,0.007c-3.126,0.005-3.126,0.005-3.805,3.084
		c-0.626,2.84-2.357,4.307-5.682,4.518c-2.391,0.151-4.797,0.087-7.196,0.069c-2.796-0.02-5.594-0.051-8.387-0.157
		c-2.969-0.112-5.527-2.481-5.626-5.445c-0.055-1.661-0.434-2.002-2.032-2.037c-3.596-0.078-7.194-0.026-10.791-0.051
		c-1.17-0.008-1.837,0.616-1.987,1.672c-0.311,2.181-1.538,3.225-3.692,3.309c-2.786,0.108-5.57,0.266-8.356,0.342
		c-2.11,0.058-2.19,0.07-2.674,2.192c-0.532,2.33-2.043,3.884-4.236,4.455c-1.968,0.513-4.063,0.284-5.393-1.58
		c-0.567-0.794-0.744-1.876-1.056-2.841c-0.171-0.528-0.257-1.085-0.393-1.679c-1.217-0.821-2.617-0.546-3.937-0.54
		c-1.013,0.005-1.453,0.775-1.67,1.735c-0.853,3.78-3.083,5.364-6.833,4.912c-1.692-0.204-3.646-2.129-3.927-3.868
		c-0.406-2.514-2.635-3.749-4.875-2.574c-0.508,0.266-0.909,1.064-1.029,1.681c-0.482,2.478-2.82,4.794-5.112,4.904
		c-2.593,0.124-5.008-1.625-5.738-4.157c-0.726-2.517-1.155-2.83-3.67-2.672c-1.579,0.099-2.008,0.481-2.357,2.102
		c-0.708,3.286-2.94,4.988-6.15,4.691c-2.065-0.191-4.411-2.466-4.649-4.509c-0.221-1.894-0.491-2.131-2.312-2.239
		c-1.726-0.102-3.294,0.137-4.708,1.304c-1.38,1.14-3.147,1.052-4.825,1.057c-6.399,0.017-12.798,0.002-19.197,0.001
		c-30.235-0.003-60.471-0.017-90.706,0.011c-3.161,0.003-6.224-0.483-9.089-1.716c-1.75-0.753-3.024-2.137-3.828-4.062
		c-1.333-3.193-1.559-6.463-1.512-9.837c0.078-5.595,0.072-11.191,0.085-16.786c0.006-2.469,0.91-4.725,1.974-6.832
		c1.374-2.721,4.215-3.515,6.928-4.153c1.613-0.38,3.333-0.406,5.006-0.408c15.678-0.021,31.355-0.002,47.033,0.005
		c0.48,0,0.962,0.024,1.44-0.007c1.668-0.11,2.099-0.498,2.138-2.217c0.057-2.479-0.001-4.96,0.021-7.439
		c0.009-1.038,0.016-2.087,0.164-3.11c0.518-3.591,2.179-5.329,6.033-5.336c8.633-0.014,17.266,0.009,25.899,0.012
		c9.669,0.003,19.342,0.146,29.007-0.076c3.418-0.078,6.459,2.815,6.205,6.297c-0.261,3.579-0.06,7.193-0.061,10.791
		C175.317,261.84,175.317,262.79,175.317,263.988z M539.033,292.279c0,0.004,0,0.008,0,0.012c64.155,0,128.31,0.002,192.465-0.009
		c1.753,0,3.513-0.067,5.255-0.243c1.013-0.103,2.18-0.231,2.962-0.79c2.781-1.986,4.68-4.468,4.322-8.241
		c-0.208-2.195-1.445-3.519-2.786-5.051c-1.475-1.686-3.15-2.276-5.224-2.309c-3.196-0.052-6.391-0.186-9.586-0.187
		c-65.272-0.012-130.545-0.006-195.817-0.012c-62.152-0.006-124.304-0.022-186.456-0.033c-1.833,0-2.371,0.406-2.395,2.179
		c-0.057,4.159-0.053,8.319-0.002,12.478c0.021,1.683,0.508,2.093,2.157,2.195c0.399,0.025,0.8,0.011,1.2,0.011
		C409.762,292.279,474.398,292.279,539.033,292.279z M164.326,273.339c-1.247-0.084-2.335-0.222-3.423-0.222
		c-26.761-0.009-53.522-0.003-80.283-0.001c-2.258,0-2.522,0.207-2.532,2.385c-0.027,5.596-0.032,11.192-0.008,16.788
		c0.009,2.017,0.359,2.319,2.403,2.319c27.071,0.005,54.142,0.009,81.213-0.005c0.848,0,1.697-0.194,2.63-0.308
		C164.326,287.25,164.326,280.42,164.326,273.339z M330.597,270.605c-4.597-0.032-8.884-0.109-13.169-0.056
		c-0.951,0.012-1.542,0.72-1.448,1.828c0.081,0.952,0.07,1.914,0.07,2.871c0,6.548-0.009,13.096-0.012,19.644
		c-0.001,1.649,0.258,2.198,1.491,2.22c3.911,0.07,7.825,0.012,11.738-0.01c0.938-0.005,1.494-0.478,1.557-1.447
		c0.031-0.477,0.069-0.956,0.069-1.433c0.001-6.868,0.005-13.737-0.018-20.605C330.873,272.76,330.722,271.902,330.597,270.605z
		 M119.216,254.783c0,2.105,0.032,3.773-0.011,5.44c-0.032,1.234,0.548,1.759,1.732,1.735c0.4-0.008,0.799-0.001,1.199-0.001
		c13.192,0.004,26.384,0.008,39.576,0.011c0.479,0,0.964,0.028,1.437-0.029c0.794-0.096,1.387-0.492,1.376-1.37
		c-0.024-1.811-0.102-3.622-0.167-5.749C149.287,254.668,134.478,254.75,119.216,254.783z M66.997,294.026
		c-0.064-6.875,0.105-13.69-0.101-20.756c-4.128-0.29-7.971-0.156-12.157-0.122c-0.065,7.228-0.074,14.18,0.009,21.051
		C57.383,294.812,64.704,294.725,66.997,294.026z M285.715,294.5c0.703-2.197,0.665-19.36-0.026-21.225c-1.389,0-2.788,0-4.491,0
		c-0.109,7.154-0.147,14.118,0.017,21.225C282.934,294.5,284.341,294.5,285.715,294.5z M263.436,287.24c0,0.013,0,0.026,0,0.039
		c1.591,0,3.182,0.003,4.773-0.001c1.399-0.003,1.908-0.403,2.01-1.741c0.072-0.949,0.026-1.91-0.007-2.865
		c-0.067-1.911-0.37-2.227-2.236-2.242c-2.624-0.021-5.249,0.012-7.874-0.006c-4.345-0.03-4.392,0.008-4.269,4.366
		c0.057,2.016,0.471,2.42,2.595,2.445C260.097,287.257,261.767,287.24,263.436,287.24z M212.908,283.808
		c0-1.839-0.006-3.679,0.001-5.518c0.011-2.61-0.071-2.705-2.586-2.838c-2.729-0.144-2.981,0.109-2.975,2.886
		c0.008,3.519,0.014,7.038-0.006,10.557c-0.019,3.281,0.245,3.547,3.544,3.377c1.624-0.084,1.977-0.384,2.011-1.986
		C212.942,288.128,212.908,285.968,212.908,283.808z M229.794,283.927c0-2.237-0.032-4.474,0.013-6.71
		c0.025-1.229-0.541-1.761-1.715-1.762c-0.399,0-0.799,0.006-1.198-0.003c-2.444-0.057-2.797,0.259-2.808,2.667
		c-0.016,3.515,0.001,7.03-0.007,10.545c-0.008,3.484,0.393,3.861,3.874,3.588c0.08-0.006,0.16-0.006,0.239-0.008
		c1.203-0.035,1.659-0.642,1.622-1.847C229.749,288.242,229.796,286.084,229.794,283.927z M190.514,283.939
		c0,2.077-0.041,4.155,0.026,6.23c0.019,0.588,0.273,1.62,0.557,1.67c1.372,0.241,2.851,0.489,4.172,0.197
		c0.991-0.22,0.846-1.515,0.831-2.504c-0.052-3.593-0.053-7.186-0.025-10.779c0.025-3.242-0.281-3.554-3.561-3.332
		c-1.574,0.107-1.954,0.452-1.986,2.049C190.486,279.624,190.517,281.782,190.514,283.939z M175.303,283.756
		c-0.002,0-0.003,0-0.005,0c0,2.226,0.017,4.452-0.009,6.678c-0.009,0.779,0.098,1.553,0.948,1.692
		c2.047,0.334,3.36,0.4,3.335-2.206c-0.029-2.942-0.031-5.884-0.035-8.826c-0.001-1.193,0.071-2.387,0.025-3.577
		c-0.063-1.654-0.552-2.074-2.213-2.062c-1.74,0.013-2.032,0.3-2.043,2.098C175.293,279.621,175.303,281.689,175.303,283.756z
		 M244.834,283.762c-0.002,0-0.005,0-0.007,0c0-2.073,0.016-4.146-0.005-6.218c-0.018-1.856-0.717-2.386-2.512-2.062
		c-1.379,0.249-1.496,1.256-1.499,2.332c-0.013,3.985-0.01,7.97-0.001,11.955c0.001,0.394,0.017,0.806,0.132,1.178
		c0.303,0.982,1.529,1.538,2.762,1.306c1.024-0.193,1.144-0.93,1.136-1.795C244.821,288.226,244.834,285.994,244.834,283.762z
		 M300.337,287.247c1.269,0,1.997-0.091,2.693,0.02c1.294,0.205,1.776-0.417,1.799-1.574c0.024-1.195,0.002-2.391,0.002-3.586
		c0-1.169-0.501-1.761-1.751-1.694c-1.192,0.063-2.39,0.006-3.585,0.005c-2.003-0.001-2.218,0.196-2.292,2.112
		c-0.012,0.318,0.001,0.638,0,0.956C297.187,287.469,296.991,287.476,300.337,287.247z"/>
	<path fill="#0A0A0A" d="M539.033,292.279c-64.636,0-129.271,0-193.907,0c-0.4,0-0.801,0.013-1.2-0.011
		c-1.649-0.102-2.136-0.512-2.157-2.195c-0.051-4.159-0.054-8.319,0.002-12.478c0.024-1.773,0.563-2.179,2.395-2.179
		c62.152,0.011,124.304,0.027,186.456,0.033c65.272,0.006,130.545,0,195.817,0.012c3.195,0.001,6.391,0.135,9.586,0.187
		c2.074,0.033,3.749,0.623,5.224,2.309c1.341,1.533,2.578,2.856,2.786,5.051c0.357,3.773-1.541,6.255-4.322,8.241
		c-0.782,0.559-1.949,0.687-2.962,0.79c-1.742,0.177-3.502,0.243-5.255,0.243c-64.155,0.011-128.31,0.009-192.465,0.009
		C539.033,292.287,539.033,292.283,539.033,292.279z"/>
</g>
</svg>
