<?xml version="1.0" encoding="UTF-8"?>
<svg viewBox="0 0 219.03336 28.693546" xmlns="http://www.w3.org/2000/svg">
 <g transform="translate(566.38 -602.44)">
  <path d="m-376.875,602.4375c-.57794.00708-1.50082.11375-2.34375.25-2.95279.47724-6.38416,2.52714-8.28125,4.9375-1.43287,1.82056-1.51059,1.92832-2.375,4.34375-.21686.60593-.43356,1.12631-.59375,1.375l-175.875.2041-.03125.6084 166.375,2.5625c3.4036.05242 8.89251-.22469 9.125,2.125 .36466.75065.98393,2.34802 1.375,3.53125 .61493,1.86045.93083,2.38949 2.21875,3.84375 1.89505,2.13983 3.41819,3.17139 5.65625,3.875 .97924.3079 1.83697.68147 1.90625.8125 .14866.28112 2.76179.30592 3.28125.03125 .42572-.22512.79582-1.55873.5625-2-.09018-.17053-.08718-1.49869 0-2.96875s.13926-2.75769.09375-2.84375c-.11802-.22317.25385-3.51317.40625-3.59375 .0697-.03686.55325-.03585 1.09375,0l2.8125.1875c.99583.06673 2.737.12149 3.875.09375s2.24945.03206 2.46875.15625 .53773.15625.71875.0625 1.03691-.16539 1.90625-.15625 2.11513.01185 2.78125,0 1.93653.03657 2.8125.125 2.95113.1691 4.59375.15625l2.96875-.03125 .875-1.03125c1.09248-1.28474 1.30586-2.06016 1-3.625-.21596-1.10488-.33006-1.28734-1.40625-1.875-.65484-.35759-1.64281-.66236-2.1875-.6875-2.15221-.09937-10.90409-.02973-16.8125.125-1.23168.03228-2.31846.01222-2.4375-.03125-.6352-.2319-4.42137.06693-4.78125.375-.23143.19812-.50855.22365-.59375.0625s-.03985-.33561.09375-.40625 .19776-.86685.15625-1.75 .01134-2.42593.09375-3.4375 .04069-2.59446-.09375-3.53125c-.24069-1.67716-.26783-1.72501-1-1.84375-.10224-.01658-.24485-.03361-.4375-.03125zm-2.71875,2.625c1.02862-.06062 1.35979.47173 1.125,1.78125-.09513.53059-.08846,1.17177.03125,1.40625s.1727.61891.09375.875-.13531.81841-.125,1.25c.01995.8352-.4532,1.06123-.96875.46875-.17173-.19737-.63679-.95203-1.0625-1.6875s-.96989-1.43744-1.1875-1.5625c-.62671-.36023-1.41412.23459-1.28125.96875 .09816.54236-.0592.73737-.8125,1-.51116.17817-1.11453.55566-1.3125.84375-.64411.93732-1.30413,3.82252-1.375,5.875-.06656,1.92765-.01072,2.13437 1.46875,4.875 1.49201,2.76383 1.60248,2.8761 3.625,4.25 1.14837.78007 2.0391,1.52948 2,1.65625-.12177.39509-1.1323.36865-1.34375-.03125-.11058-.20912-.31862-.29813-.46875-.21875s-.35027.00873-.4375-.15625-.5138-.60392-.96875-.96875l-1.5-1.1875c-1.08611-.87937-2.7142-4.1928-3.09375-6.3125-.46348-2.58857-.28091-4.35753.6875-6.78125 .64895-1.62434 1.2045-2.37583 2.71875-3.78125 2.14867-1.99421 2.96037-2.49018 4.1875-2.5625zm25.84375,9.59375c3.35389-.00107 4.56088.46546 4.5,1.78125-.02824.61056-.06611.61393-.53125.125-.34149-.35896-.69968-.39766-1.15625-.15625-.36578.19339-1.28043.27077-2.03125.1875s-1.57832-.01534-1.84375.125-.54561.1189-.625-.03125-.30482-.19695-.5-.09375c-.3829.20244-1.29756.01126-1.46875-.3125-.05786-.10939-.01743-.48308.09375-.84375s.24983-.68561.3125-.71875 1.52314-.06195 3.25-.0625z"/>
 </g>
</svg>
